<?xml version="1.0" standalone="no"?>
<!DOCTYPE svg PUBLIC "-//W3C//DTD SVG 1.1//EN" "http://www.w3.org/Graphics/SVG/1.1/DTD/svg11.dtd" >
<svg xmlns="http://www.w3.org/2000/svg" xmlns:xlink="http://www.w3.org/1999/xlink" version="1.1">
<metadata>
Created by FontForge 20170924 at Sat Feb 29 20:06:22 2020
 By www-data
Gabriely (c) Huntype.2020. All Rights Reserved
</metadata>
<defs>
<font id="Gabriely-Black" horiz-adv-x="393" >
  <font-face 
    font-family="Gabriely"
    font-weight="900"
    font-stretch="normal"
    units-per-em="2048"
    panose-1="2 0 5 0 0 0 0 0 0 0"
    ascent="1638"
    descent="-410"
    x-height="1433"
    cap-height="1433"
    bbox="70 -343 2150 1653"
    underline-thickness="150"
    underline-position="-292"
    unicode-range="U+001D-201E"
  />
<missing-glyph horiz-adv-x="1004" 
d="M70 -20v1474h864v-1474h-864zM160 70h684v1294h-684v-1294zM295 1157q39 35 68 51q58 33 122 33q99 0 161.5 -53t62.5 -142q0 -53 -24.5 -106t-89.5 -134q-63 -80 -97 -129t-34 -90q0 -36 30 -153h-72q-41 114 -41 168q0 81 81.5 223t81.5 212q0 49 -27 76t-77 27
q-33 0 -59 -14q-25 -14 -86 -66v97zM364 348l58 58q17 16 34 16q18 0 36 -17l57 -61q14 -17 14 -33q0 -19 -15 -35l-56 -63q-21 -20 -36 -20q-20 0 -35 17l-61 71q-12 15 -12 31q0 18 16 36z" />
    <glyph glyph-name=".notdef" horiz-adv-x="1004" 
d="M70 -20v1474h864v-1474h-864zM160 70h684v1294h-684v-1294zM295 1157q39 35 68 51q58 33 122 33q99 0 161.5 -53t62.5 -142q0 -53 -24.5 -106t-89.5 -134q-63 -80 -97 -129t-34 -90q0 -36 30 -153h-72q-41 114 -41 168q0 81 81.5 223t81.5 212q0 49 -27 76t-77 27
q-33 0 -59 -14q-25 -14 -86 -66v97zM364 348l58 58q17 16 34 16q18 0 36 -17l57 -61q14 -17 14 -33q0 -19 -15 -35l-56 -63q-21 -20 -36 -20q-20 0 -35 17l-61 71q-12 15 -12 31q0 18 16 36z" />
    <glyph glyph-name=".null" horiz-adv-x="180" 
 />
    <glyph glyph-name=".null" horiz-adv-x="180" 
 />
    <glyph glyph-name="nonmarkingreturn" horiz-adv-x="180" 
 />
    <glyph glyph-name="space" unicode=" " horiz-adv-x="558" 
 />
    <glyph glyph-name="space" unicode="&#xa0;" horiz-adv-x="558" 
 />
    <glyph glyph-name="exclam" unicode="!" horiz-adv-x="508" 
d="M255 250v0q72 0 122.5 -49.5t50.5 -121.5t-50.5 -121.5t-122.5 -49.5q-74 0 -124.5 49.5t-50.5 121.5t50.5 121.5t124.5 49.5zM367 332v0h-224l-13 1094h249z" />
    <glyph glyph-name="quotedbl" unicode="&#x22;" horiz-adv-x="708" 
d="M395 877v0v623h233v-623h-233zM80 877v0v623h232v-623h-232z" />
    <glyph glyph-name="numbersign" unicode="#" horiz-adv-x="1510" 
d="M863 821v0h-167l-51 -208h168zM1247 1424v0l-92 -376h275v-227h-331l-50 -208h263v-228h-319l-91 -375h-237l92 375h-168l-91 -375h-237l92 375h-273v228h329l50 208h-259v227h315l92 376h236l-91 -376h167l92 376h236z" />
    <glyph glyph-name="dollar" unicode="$" horiz-adv-x="1104" 
d="M653 863v0q167 -40 263 -136q108 -109 108 -266t-130 -275q-92 -79 -221 -105v-182h-229v180q-112 22 -196 82q-123 89 -153 231l-15 71l220 98l22 -110q13 -61 50.5 -93t86 -43.5t94.5 -11.5q102 0 168 44.5t66 113.5q0 38 -14.5 70t-56 58t-120.5 46l-107 26
q-336 85 -336 350q0 152 118 245q74 60 173 83v180h229v-182q210 -56 276 -234l24 -73l-217 -112l-31 106q-17 52 -67.5 73.5t-102.5 21.5q-31 0 -70 -9.5t-67.5 -32.5t-28.5 -66q0 -17 6.5 -38.5t39.5 -43t109 -40.5z" />
    <glyph glyph-name="percent" unicode="%" horiz-adv-x="1639" 
d="M353 1171v0q-35 -35 -35 -89t36 -92q33 -35 88 -35q53 0 90.5 37t37.5 90q0 52 -37.5 89.5t-90.5 37.5q-55 0 -87 -36zM701 828v0q-111 -106 -258 -106q-143 0 -255 105q-108 111 -108 255t108 254q112 106 255 106q147 0 258 -106q106 -110 106 -254t-106 -254v0z
M1105 441v0q-35 -35 -35 -89t36 -92q32 -35 87 -35q54 0 91.5 37t37.5 90q0 52 -37.5 89.5t-91.5 37.5q-55 0 -87 -36zM1195 712v0q147 0 258 -106q106 -110 106 -254t-106 -254q-111 -106 -258 -106q-143 0 -255 105q-108 111 -108 255t108 255q112 105 255 105zM1148 1424
v0h276l-934 -1414h-277z" />
    <glyph glyph-name="ampersand" unicode="&#x26;" horiz-adv-x="1410" 
d="M1129 928v0v-202h201v-224h-200q-15 -231 -154 -369q-148 -141 -371 -141q-207 0 -362 122q-158 134 -161 341q-2 166 124 300q29 30 62 56q-95 105 -95 251q0 163 137 279q130 101 294 101q152 0 266 -75.5t156 -204.5l25 -79l-219 -90l-29 94q-18 57 -71 89.5
t-128 32.5q-47 0 -91.5 -17t-73.5 -49.5t-29 -80.5q0 -82 62 -119q50 -29 133 -29h115v-227h-115q-123 0 -206 -66t-83 -165q0 -80 43.5 -131.5t110 -76.5t135.5 -25q131 0 206 71.5t87 207.5h-139v224h141v202h229z" />
    <glyph glyph-name="quotesingle" unicode="'" 
d="M80 877v0v623h233v-623h-233z" />
    <glyph glyph-name="parenleft" unicode="(" horiz-adv-x="697" 
d="M396 236v0q77 -214 163 -325l58 -72l-188 -143l-55 70q-113 147 -202.5 401.5t-91.5 507.5q2 252 91.5 506.5t202.5 401.5l55 70l188 -143l-58 -72q-86 -111 -163 -325q-85 -244 -83 -437v-1v-2q-2 -193 83 -437z" />
    <glyph glyph-name="parenright" unicode=")" horiz-adv-x="698" 
d="M323 1583v0q114 -147 203 -401.5t92 -507.5q-3 -252 -92 -506.5t-203 -401.5l-54 -70l-189 143l59 72q85 111 163 325q85 244 83 437v1v2q2 193 -83 437q-78 214 -163 325l-59 72l189 143z" />
    <glyph glyph-name="asterisk" unicode="*" horiz-adv-x="918" 
d="M773 1172v0l65 -224l-193 -60l125 -171l-193 -129l-118 166l-116 -166l-194 129l125 171l-194 60l64 224l202 -66l-3 207h234l-4 -207z" />
    <glyph glyph-name="plus" unicode="+" horiz-adv-x="1183" 
d="M708 1087v0v-396h395v-230h-395v-397h-233v397h-395v230h395v396h233z" />
    <glyph glyph-name="comma" unicode="," horiz-adv-x="520" 
d="M97 174v0v241h343l-139 -622h-221l66 381h-49z" />
    <glyph glyph-name="hyphen" unicode="-" horiz-adv-x="764" 
d="M80 461v0v230h604v-230h-604z" />
    <glyph glyph-name="hyphen" unicode="&#xad;" horiz-adv-x="764" 
d="M80 461v0v230h604v-230h-604z" />
    <glyph glyph-name="period" unicode="." horiz-adv-x="507" 
d="M254 334v0q73 0 123 -49.5t50 -121.5t-50 -121.5t-123 -49.5t-123.5 49.5t-50.5 121.5t50.5 121.5t123.5 49.5z" />
    <glyph glyph-name="slash" unicode="/" horiz-adv-x="1157" 
d="M80 -87v0l744 1589h253l-742 -1589h-255z" />
    <glyph glyph-name="zero" unicode="0" horiz-adv-x="1253" 
d="M627 225v0q139 0 224.5 135.5t85.5 356.5q0 222 -96 369q-87 123 -214 123q-128 0 -215 -123q-96 -147 -96 -369q0 -221 85.5 -356.5t225.5 -135.5zM627 1442v0q120 0 223.5 -54.5t178.5 -156.5q144 -205 144 -514t-144 -514q-75 -102 -178.5 -156.5t-223.5 -54.5
q-121 0 -224.5 54.5t-178.5 156.5q-144 205 -144 514t144 514q75 102 178.5 156.5t224.5 54.5z" />
    <glyph glyph-name="one" unicode="1" horiz-adv-x="646" 
d="M80 955v0l319 487h167v-1432h-233v945h-253z" />
    <glyph glyph-name="two" unicode="2" horiz-adv-x="1253" 
d="M913 669v0l-349 -430h609v-229h-1093l650 802q53 66 83.5 119.5t30.5 102.5q0 81 -47.5 128t-129.5 47q-83 0 -130.5 -46.5t-47.5 -128.5v-90h-236v90q0 173 119 294q122 114 295 114t296 -116q117 -121 117 -292q0 -98 -43.5 -183t-122.5 -182h-1z" />
    <glyph glyph-name="three" unicode="3" horiz-adv-x="1219" 
d="M815 937v0q129 -46 215 -147q109 -133 109 -306q0 -203 -149 -351q-156 -141 -373 -141q-177 0 -318 93q-132 91 -191 242l-28 75l209 108l35 -95q35 -91 111.5 -140.5t181.5 -49.5q128 0 207 71.5t79 187.5q0 112 -86 184.5t-217 72.5h-196l298 452h-494v229h930z" />
    <glyph glyph-name="four" unicode="4" horiz-adv-x="1387" 
d="M521 458v0h339v492zM1093 1442v0v-984h214v-230h-214v-218h-233v218h-780l841 1214h172z" />
    <glyph glyph-name="five" unicode="5" horiz-adv-x="1227" 
d="M613 1018v0q227 0 385 -147q149 -152 149 -364q0 -216 -152 -369q-159 -146 -382 -146q-176 0 -316 91q-136 92 -191 244l-26 75l210 105l35 -94q34 -89 110 -138.5t178 -49.5q129 0 213 79.5t84 202.5q0 121 -84 200t-213 79q-76 0 -146.5 -26t-114.5 -59l-177 -132
l137 855h738v-229h-535l-31 -190q67 13 129 13z" />
    <glyph glyph-name="six" unicode="6" horiz-adv-x="1253" 
d="M626 225v0q98 0 167 43.5t106.5 111.5t37.5 141q0 125 -90 210.5t-221 85.5q-85 0 -144.5 -26.5t-96 -70t-53 -96t-16.5 -103.5t16.5 -103.5t53 -96t96 -70t144.5 -26.5zM626 1050v0q227 0 392 -155q155 -160 155 -374t-156 -374q-165 -155 -391 -155q-240 0 -398 155
q-148 157 -148 374q0 66 12 129v1l7 29q29 108 83.5 197.5t117.5 167.5l3 5q18 19 30 38l2 3l242 333h298l-280 -374h31z" />
    <glyph glyph-name="seven" unicode="7" horiz-adv-x="1137" 
d="M80 1195v0v229h977l-596 -1414h-254l502 1185h-629z" />
    <glyph glyph-name="eight" unicode="8" horiz-adv-x="1211" 
d="M605 225v0q132 0 210.5 65.5t78.5 174.5q0 106 -80.5 172.5t-208.5 66.5q-127 0 -208 -66.5t-81 -172.5q0 -109 78.5 -174.5t210.5 -65.5zM605 939v0q82 0 129 37t47 101q0 61 -47 96.5t-129 35.5q-81 0 -128.5 -35.5t-47.5 -96.5q0 -64 47.5 -101t128.5 -37zM932 843v0
q95 -67 147 -165t52 -213q0 -195 -150 -338q-157 -135 -376 -135q-218 0 -375 135q-150 143 -150 338q0 115 51.5 213t146.5 165q-85 100 -85 232q0 152 122 264q123 103 290 103t291 -103q122 -112 122 -264q0 -132 -86 -232z" />
    <glyph glyph-name="nine" unicode="9" horiz-adv-x="1193" 
d="M876 943v0q0 61 -26.5 122.5t-87.5 102.5t-164 41q-118 0 -199 -77t-81 -189t81 -189.5t199 -77.5q103 0 164 41t87.5 102.5t26.5 123.5zM599 1442v0q228 -2 374 -146q140 -148 140 -353q0 -69 -15 -135l-2 -11q-8 -31 -18 -61q-34 -94 -84 -171q-36 -56 -117 -167
l-41 -55l-242 -333h-296l319 434h-19q-214 0 -370 145q-144 145 -147 353q-1 201 143 350q155 151 375 150z" />
    <glyph glyph-name="colon" unicode=":" horiz-adv-x="507" 
d="M255 1018v0q72 0 122 -49.5t50 -121.5t-50 -121.5t-122 -49.5q-74 0 -124.5 49.5t-50.5 121.5t50.5 121.5t124.5 49.5zM255 334v0q72 0 122 -49.5t50 -121.5t-50 -121.5t-122 -49.5q-74 0 -124.5 49.5t-50.5 121.5t50.5 121.5t124.5 49.5z" />
    <glyph glyph-name="semicolon" unicode=";" horiz-adv-x="521" 
d="M98 174v0v241h343l-138 -622h-222l66 381h-49zM255 676v0q-73 0 -124 49.5t-51 121.5t51 121.5t124 49.5t123 -49.5t50 -121.5t-50 -121.5t-123 -49.5z" />
    <glyph glyph-name="semicolon" unicode="&#x37e;" horiz-adv-x="521" 
d="M98 174v0v241h343l-138 -622h-222l66 381h-49zM255 676v0q-73 0 -124 49.5t-51 121.5t51 121.5t124 49.5t123 -49.5t50 -121.5t-50 -121.5t-123 -49.5z" />
    <glyph glyph-name="less" unicode="&#x3c;" horiz-adv-x="1186" 
d="M80 505v0v142l1026 560v-267l-670 -364l670 -365v-266z" />
    <glyph glyph-name="equal" unicode="=" horiz-adv-x="1183" 
d="M80 258v230h1023v-230h-1023zM80 660v230h1023v-230h-1023z" />
    <glyph glyph-name="greater" unicode="&#x3e;" horiz-adv-x="1187" 
d="M80 940v0v267l1027 -560v-142l-5 -3l-1022 -557v266l671 365z" />
    <glyph glyph-name="question" unicode="?" horiz-adv-x="1150" 
d="M931 1306v0q139 -139 139 -325q0 -95 -34 -173q-31 -73 -89 -137l-2 -2q-42 -46 -149 -145l-246 -230l-177 155l266 246q95 86 129 126q66 65 66 160q0 55 -29.5 107.5t-86.5 86.5t-140 34q-100 0 -170 -54t-85 -142l-13 -94l-230 45l12 85q26 167 159 280
q141 113 327 113q204 0 353 -136zM548 206v0q73 0 123 -49.5t50 -121.5t-50 -121.5t-123 -49.5t-123.5 49.5t-50.5 121.5t50.5 121.5t123.5 49.5z" />
    <glyph glyph-name="at" unicode="@" horiz-adv-x="1933" 
d="M1318 103v0l73 55q-111 4 -184 79q-13 13 -24 29q-134 -108 -302 -108q-163 0 -283 110q-121 121 -121 294q0 15 2 36v3v4q1 8 2 17v6q29 211 169 339q142 122 324 122q126 0 218 -64l6 46h227l-65 -536q-3 -16 -3 -54q0 -45 7.5 -64t19.5 -22.5t24 -3.5q52 0 96.5 42.5
t73 106t35.5 130.5v11q1 6 1 11v2q2 26 2 37v1q2 229 -153 388q-169 167 -431 166h-1h-2h-11q-179 0 -333 -90t-251 -241t-112 -337q-1 -13 -2 -24v-1q-2 -30 -2 -45v-1q0 -254 166 -424q166 -163 415 -162h1q227 0 418 142zM967 856v0q-82 0 -157 -63t-94 -186v-11
q-1 -2 -1 -4q0 -6 -1 -13t-1 -10q0 -80 48.5 -129t126.5 -49q77 0 149 60t91 178v0q3 11 3 44q0 63 -24.5 103.5t-62 60t-77.5 19.5zM1036 1519v0q353 2 592 -231q225 -229 224 -554q0 -22 -2 -53v-4l-1 -19q-16 -187 -131 -336q-132 -162 -310 -164v0h-8h-6l134 -193
l-69 -52q-247 -183 -563 -185h-14q-335 3 -566 230q-236 241 -234 590q0 20 2 50q0 5 1 9q0 10 1 21v1q30 374 296 633q133 125 297.5 191t343.5 66h13z" />
    <glyph glyph-name="A" unicode="A" horiz-adv-x="1568" 
d="M985 579v0l-201 460l-201 -460h402zM1488 19v0h-257l-146 331h-604l-146 -331h-255l628 1431h152z" />
    <glyph glyph-name="B" unicode="B" horiz-adv-x="1169" 
d="M313 622v0v-374h326q91 0 145 36q69 47 69 153q0 86 -57.5 135.5t-159.5 49.5h-323zM712 895v0q44 57 44 132q0 99 -65 143q-51 33 -136 33h-242v-352h326q36 0 73 44zM1089 437v0q0 -193 -127 -307q-125 -111 -312 -111h-570v1414h487q202 0 314 -118q111 -116 111 -286
q0 -146 -79 -256q42 -28 75 -65q101 -118 101 -271z" />
    <glyph glyph-name="C" unicode="C" horiz-adv-x="1559" 
d="M290 204v0q-209 216 -210 522q1 306 210 522q210 204 516 202q431 -6 628 -353l45 -83l-215 -104l-40 77q-59 112 -167 171.5t-252 59.5h-1q-206 1 -345 -134q-142 -147 -143 -357v-1v-1q1 -211 143 -357q138 -136 344 -134h1q145 0 253 59t167 171l40 77l215 -103
l-45 -83q-197 -348 -629 -354h-13q-144 0 -273.5 52t-228.5 151z" />
    <glyph glyph-name="D" unicode="D" horiz-adv-x="1367" 
d="M911 1071v0q-139 135 -348 132h-1h-249v-955h250q209 -3 348 133q138 141 139 344v1q-1 203 -139 345zM571 19v0h-10h-481v1414h481q313 0 524 -205q202 -208 201 -502q1 -295 -201 -502q-207 -202 -514 -205z" />
    <glyph glyph-name="E" unicode="E" horiz-adv-x="1098" 
d="M1018 248v0v-229h-938v1414h938v-230h-705v-350h659v-230h-659v-375h705z" />
    <glyph glyph-name="F" unicode="F" horiz-adv-x="1063" 
d="M313 622v0v-603h-233v1414h903v-230h-670v-352h648v-229h-648z" />
    <glyph glyph-name="G" unicode="G" horiz-adv-x="1609" 
d="M291 204v0q-210 217 -211 522q1 304 211 521q211 205 515 203q327 -4 537 -224l61 -65l-173 -165l-62 71q-140 151 -364 151h-1q-206 2 -345 -134q-142 -147 -143 -357v-1v-1q1 -211 143 -357q138 -136 344 -134h1q178 0 306 99.5t169 269.5l5 21q1 10 3 33l-220 -1v237
h454l5 -85q0 -9 1 -16v-7v0q2 -33 2 -59q0 -305 -210 -522q-206 -200 -502 -203h-12q-304 -1 -514 203z" />
    <glyph glyph-name="H" unicode="H" horiz-adv-x="1333" 
d="M313 625v0v-606h-233v1414h233v-579h707v579h233v-1414h-233v606h-707z" />
    <glyph glyph-name="I" unicode="I" 
d="M313 1433v0v-1414h-233v1414h233z" />
    <glyph glyph-name="J" unicode="J" horiz-adv-x="1176" 
d="M588 1v0q-221 0 -367 146q-141 150 -141 376v90h233v-90q0 -134 74 -211.5t201 -77.5q131 0 203 78t72 220v901h233v-910q0 -228 -141 -377q-145 -145 -367 -145z" />
    <glyph glyph-name="K" unicode="K" horiz-adv-x="1328" 
d="M1221 1433v0l-665 -659l692 -755h-315l-544 591l-76 -75v-516h-233v1414h233v-574l578 574h330z" />
    <glyph glyph-name="L" unicode="L" horiz-adv-x="1088" 
d="M1008 248v0v-229h-928v1414h233v-1185h695z" />
    <glyph glyph-name="M" unicode="M" horiz-adv-x="1522" 
d="M761 796v0l511 654h170v-1431h-233v970l-448 -567l-448 567v-970h-233v1431h169z" />
    <glyph glyph-name="N" unicode="N" horiz-adv-x="1355" 
d="M1275 1433v0v-1432h-168l-3 4l-791 991v-977h-233v1431h168l3 -3l792 -991v977h232z" />
    <glyph glyph-name="O" unicode="O" horiz-adv-x="1609" 
d="M316 727v0v-1v-2q1 -210 143 -356q137 -136 344 -134h1h2q205 -2 343 134q143 147 144 357v1v1q-1 209 -144 356q-139 135 -335 135h-8h-1h-2q-206 1 -344 -134q-142 -147 -143 -357zM290 204v0q-210 216 -210 522q0 304 211 521q210 205 514 203q302 2 513 -203
q210 -217 211 -521q-1 -306 -210 -522q-205 -200 -502 -203h-13h-12q-145 0 -274 52t-228 151z" />
    <glyph glyph-name="P" unicode="P" horiz-adv-x="1143" 
d="M315 1203v0v-460h211q150 0 226 59q74 58 74 172q0 115 -70 170q-77 59 -230 59h-211zM315 514v0v-495h-235v1414h462q225 0 369 -117q152 -123 152 -342q0 -216 -153 -343q-141 -117 -368 -117h-227z" />
    <glyph glyph-name="Q" unicode="Q" horiz-adv-x="1623" 
d="M1293 725v0v1v1q-1 209 -143 356q-139 135 -335 135h-8h-2h-1h-9q-197 0 -335 -134q-142 -147 -143 -357v-1v-2q1 -210 142 -356q138 -136 345 -134h1h1q147 -2 264 71l-172 287h272l65 -108q59 113 58 241zM1530 726v0q0 -261 -159 -466l172 -285h-276l-76 128
q-173 -105 -386 -102h-13q-297 3 -502 203q-209 216 -210 522q1 304 212 521q210 205 513 203q303 2 514 -203q210 -217 211 -521z" />
    <glyph glyph-name="R" unicode="R" horiz-adv-x="1231" 
d="M313 1203v0v-375h305q105 0 164.5 49.5t59.5 137.5t-59.5 138t-164.5 50h-305zM787 621v0l364 -602h-275l-348 580h-215v-580h-233v1414h557q178 0 310 -115q131 -126 131 -303q0 -139 -84 -250q-79 -103 -207 -144z" />
    <glyph glyph-name="S" unicode="S" horiz-adv-x="1186" 
d="M953 122v0q-152 -121 -358 -121q-195 0 -329.5 97t-169.5 263l-16 78l224 74l21 -99q17 -73 60.5 -112.5t100 -53.5t109.5 -14q119 0 197 57.5t78 146.5q0 86 -48 132q-53 54 -178 86l-120 32q-59 15 -122.5 41.5t-118 69.5t-88.5 109.5t-34 162.5q0 167 137 281
q129 98 298 98q145 0 263 -71q123 -78 165 -208l25 -80l-221 -88l-28 93q-19 57 -73 89.5t-131 32.5q-89 0 -150 -46q-49 -35 -49 -101q0 -35 14 -62.5t55 -50.5t121 -45l117 -32q199 -52 298 -160q104 -113 104 -283q0 -183 -153 -316z" />
    <glyph glyph-name="T" unicode="T" horiz-adv-x="1275" 
d="M523 19v0v1184h-443v230h1115v-230h-439v-1184h-233z" />
    <glyph glyph-name="U" unicode="U" horiz-adv-x="1278" 
d="M965 539v0v894h233v-894q0 -229 -157 -388q-165 -150 -402 -150t-401 150q-158 159 -158 388v894h233v-894q0 -135 91 -220t235 -85t235 85t91 220z" />
    <glyph glyph-name="V" unicode="V" horiz-adv-x="1630" 
d="M1550 1433v0l-7 -14l-653 -1418h-150l-660 1432h256l3 -6l476 -1027l478 1033h257z" />
    <glyph glyph-name="W" unicode="W" horiz-adv-x="2230" 
d="M1116 976v0l-346 -975h-159l-531 1432h252l356 -967l346 984h163l346 -983l355 966h252l-6 -14l-523 -1418h-161l-3 7z" />
    <glyph glyph-name="X" unicode="X" horiz-adv-x="1608" 
d="M1528 19v0h-303l-420 546l-419 -546h-306l570 736l-541 678h302l394 -490l392 490h303l-542 -678z" />
    <glyph glyph-name="Y" unicode="Y" horiz-adv-x="1474" 
d="M740 776v0l378 657h276l-538 -920v-494h-232v493l-544 921h276z" />
    <glyph glyph-name="Z" unicode="Z" horiz-adv-x="1332" 
d="M1180 19v0h-1100l755 1184h-640v230h1057l-752 -1185h680v-229z" />
    <glyph glyph-name="bracketleft" unicode="[" horiz-adv-x="573" 
d="M80 -258v0v1848h413v-230h-180v-1389h180v-229h-413z" />
    <glyph glyph-name="backslash" unicode="\" horiz-adv-x="1157" 
d="M333 1502v0l3 -6l741 -1583h-255l-3 6l-739 1583h253z" />
    <glyph glyph-name="bracketright" unicode="]" horiz-adv-x="572" 
d="M80 1360v0v230h412v-1848h-412v229h180v1389h-180z" />
    <glyph glyph-name="asciicircum" unicode="^" horiz-adv-x="1483" 
d="M80 709v0l658 849l665 -852h-289l-375 480l-372 -480h-141z" />
    <glyph glyph-name="underscore" unicode="_" horiz-adv-x="1052" 
d="M80 -130v0v230h892v-230h-892z" />
    <glyph glyph-name="grave" unicode="`" horiz-adv-x="626" 
d="M80 1429v0h307l159 -449h-223z" />
    <glyph glyph-name="a" unicode="a" horiz-adv-x="1567" 
d="M985 579v0l-201 460l-201 -460h402zM1487 19v0h-256l-146 331h-604l-147 -331h-254l627 1431h153z" />
    <glyph glyph-name="b" unicode="b" horiz-adv-x="1169" 
d="M313 622v0v-374h326q90 0 144 36q69 47 69 153q0 86 -57.5 135.5t-159.5 49.5h-322zM711 895v0q44 57 44 132q0 99 -65 143q-50 33 -136 33h-241v-352h326q35 0 72 44zM1089 437v0q0 -193 -127 -307q-126 -111 -312 -111h-570v1414h487q201 0 313 -118q112 -116 112 -286
q0 -146 -79 -256q41 -28 74 -65q102 -118 102 -271z" />
    <glyph glyph-name="c" unicode="c" horiz-adv-x="1559" 
d="M290 204v0q-209 216 -210 522q1 306 210 522q210 204 516 202q431 -6 628 -353l45 -83l-214 -104l-41 77q-59 112 -167 171.5t-252 59.5h-1q-206 1 -345 -134q-142 -147 -143 -357v-1v-1q1 -211 143 -357q138 -136 344 -134h1q145 0 253 59t167 171l41 77l214 -103
l-45 -83q-197 -348 -629 -354h-13q-144 0 -273.5 52t-228.5 151z" />
    <glyph glyph-name="d" unicode="d" horiz-adv-x="1367" 
d="M911 1071v0q-139 135 -348 132h-1h-249v-955h250q209 -3 348 133q138 141 139 344v1q-1 203 -139 345zM572 19v0h-11h-481v1414h481q314 0 524 -205q202 -208 201 -502q1 -295 -201 -502q-206 -202 -513 -205z" />
    <glyph glyph-name="e" unicode="e" horiz-adv-x="1098" 
d="M1018 248v0v-229h-938v1414h938v-230h-705v-350h659v-230h-659v-375h705z" />
    <glyph glyph-name="f" unicode="f" horiz-adv-x="1063" 
d="M313 622v0v-603h-233v1414h903v-230h-670v-352h649v-229h-649z" />
    <glyph glyph-name="g" unicode="g" horiz-adv-x="1609" 
d="M291 204v0q-210 217 -211 522q1 304 211 521q211 205 515 203q327 -4 537 -224l61 -65l-173 -165l-62 71q-140 151 -364 151h-1q-206 2 -345 -134q-142 -147 -143 -357v-1v-1q1 -211 143 -357q138 -136 344 -134h1q178 0 306 99.5t169 269.5l5 21q1 10 3 33l-220 -1v237
h454l5 -85q0 -9 1 -16v-7v0q2 -33 2 -59q0 -305 -210 -522q-206 -200 -502 -203h-12q-304 -1 -514 203z" />
    <glyph glyph-name="h" unicode="h" horiz-adv-x="1333" 
d="M313 625v0v-606h-233v1414h233v-579h707v579h233v-1414h-233v606h-707z" />
    <glyph glyph-name="i" unicode="i" 
d="M313 1433v0v-1414h-233v1414h233z" />
    <glyph glyph-name="j" unicode="j" horiz-adv-x="1176" 
d="M588 1v0q-221 0 -367 146q-141 150 -141 376v90h233v-90q0 -134 74 -211.5t201 -77.5q131 0 203 78t72 220v901h233v-910q0 -228 -141 -377q-145 -145 -367 -145z" />
    <glyph glyph-name="k" unicode="k" horiz-adv-x="1327" 
d="M1221 1433v0l-665 -659l691 -755h-314l-544 591l-76 -75v-516h-233v1414h233v-574l578 574h330z" />
    <glyph glyph-name="l" unicode="l" horiz-adv-x="1088" 
d="M1008 248v0v-229h-928v1414h233v-1185h695z" />
    <glyph glyph-name="m" unicode="m" horiz-adv-x="1521" 
d="M761 796v0l511 654h169v-1431h-233v970l-447 -567l-448 567v-970h-233v1431h169z" />
    <glyph glyph-name="n" unicode="n" horiz-adv-x="1356" 
d="M1276 1433v0v-1432h-169l-3 4l-791 991v-977h-233v1431h169l3 -3l791 -991v977h233z" />
    <glyph glyph-name="o" unicode="o" horiz-adv-x="1609" 
d="M316 727v0v-1v-2q1 -210 143 -356q138 -136 344 -134h2h1q205 -2 344 134q142 147 143 357v1v1q-1 209 -144 356q-138 135 -334 135h-9h-1h-2q-205 1 -344 -134q-142 -147 -143 -357zM290 204v0q-209 216 -210 522q1 304 211 521q211 205 514 203q303 2 513 -203
q211 -217 211 -521q0 -306 -210 -522q-205 -200 -501 -203h-13h-13q-144 0 -273.5 52t-228.5 151z" />
    <glyph glyph-name="p" unicode="p" horiz-adv-x="1142" 
d="M315 1203v0v-460h211q150 0 226 59q74 58 74 172q0 115 -70 170q-77 59 -230 59h-211zM315 514v0v-495h-235v1414h462q225 0 369 -117q151 -123 151 -342q0 -216 -153 -343q-140 -117 -367 -117h-227z" />
    <glyph glyph-name="q" unicode="q" horiz-adv-x="1623" 
d="M1293 725v0v1v1q-1 209 -144 356q-138 135 -334 135h-9h-1h-2h-8q-197 0 -336 -134q-142 -147 -143 -357v-1v-2q1 -210 143 -356q138 -136 344 -134h2h1q147 -2 264 71l-172 287h272l65 -108q59 113 58 241zM1529 726v0q0 -261 -159 -466l173 -285h-276l-76 128
q-174 -105 -386 -102h-13q-297 3 -502 203q-209 216 -210 522q1 304 211 521q211 205 514 203q302 2 513 -203q211 -217 211 -521z" />
    <glyph glyph-name="r" unicode="r" horiz-adv-x="1231" 
d="M313 1203v0v-375h305q105 0 164.5 49.5t59.5 137.5t-59.5 138t-164.5 50h-305zM787 621v0l364 -602h-276l-347 580h-215v-580h-233v1414h557q178 0 310 -115q131 -126 131 -303q0 -139 -84 -250q-79 -103 -207 -144z" />
    <glyph glyph-name="s" unicode="s" horiz-adv-x="1186" 
d="M954 122v0q-153 -121 -359 -121q-194 0 -328.5 97t-170.5 263l-16 78l224 74l21 -99q17 -73 60.5 -112.5t100 -53.5t109.5 -14q119 0 197 57.5t78 146.5q0 86 -48 132q-52 54 -178 86l-120 32q-59 15 -122 41.5t-117.5 69.5t-89 109.5t-34.5 162.5q0 167 137 281
q129 98 299 98q144 0 262 -71q123 -78 165 -208l26 -80l-221 -88l-29 93q-19 57 -73 89.5t-130 32.5q-90 0 -151 -46q-49 -35 -49 -101q0 -35 14 -62.5t55.5 -50.5t120.5 -45l118 -32q198 -52 298 -160q103 -113 103 -283q0 -183 -152 -316z" />
    <glyph glyph-name="t" unicode="t" horiz-adv-x="1274" 
d="M523 19v0v1184h-443v230h1114v-230h-439v-1184h-232z" />
    <glyph glyph-name="u" unicode="u" horiz-adv-x="1278" 
d="M965 539v0v894h233v-894q0 -229 -157 -388q-165 -150 -402 -150t-402 150q-157 159 -157 388v894h233v-894q0 -135 91 -220t235 -85t235 85t91 220z" />
    <glyph glyph-name="v" unicode="v" horiz-adv-x="1630" 
d="M1550 1433v0l-7 -14l-653 -1418h-150l-660 1432h256l3 -6l476 -1027l478 1033h257z" />
    <glyph glyph-name="w" unicode="w" horiz-adv-x="2229" 
d="M1115 976v0l-345 -975h-160l-530 1432h252l355 -967l347 984h163l345 -983l355 966h252l-5 -14l-523 -1418h-162l-2 7z" />
    <glyph glyph-name="x" unicode="x" horiz-adv-x="1608" 
d="M1528 19v0h-304l-419 546l-419 -546h-306l570 736l-542 678h303l394 -490l392 490h303l-542 -678z" />
    <glyph glyph-name="y" unicode="y" horiz-adv-x="1474" 
d="M740 776v0l378 657h276l-537 -920v-494h-233v493l-544 921h276z" />
    <glyph glyph-name="z" unicode="z" horiz-adv-x="1332" 
d="M1180 19v0h-1100l755 1184h-640v230h1057l-752 -1185h680v-229z" />
    <glyph glyph-name="braceleft" unicode="{" horiz-adv-x="688" 
d="M442 1607v0q59 0 104 -15l62 -20v-239l-119 39q-18 6 -44 6q-9 0 -13 -1q-8 -25 -9.5 -70.5t-1.5 -67.5v-446q0 -72 -38 -127q38 -55 38 -127v-446q0 -23 1.5 -68t9.5 -71h13q26 0 44 5l119 40v-239l-62 -21q-45 -15 -104 -15q-19 0 -57.5 4.5t-80.5 27.5t-73 77
q-43 65 -43 260v439q0 15 -18 17h-90v233h90q16 0 18 18v439q0 194 43 260q31 53 73 76t80.5 27.5t57.5 4.5z" />
    <glyph glyph-name="bar" unicode="|" 
d="M80 -343v0v1767h233v-1767h-233z" />
    <glyph glyph-name="braceright" unicode="}" horiz-adv-x="688" 
d="M500 800v0q0 -8 5 -13t13 -5h90v-233h-90q-8 0 -13 -5t-5 -12v-439q0 -195 -43 -260q-31 -54 -73 -77t-80.5 -27.5t-57.5 -4.5q-59 0 -104 15l-62 21v239l119 -40q19 -5 44 -5h13q8 26 9.5 71t1.5 68v446q0 72 37 127q-37 55 -37 127v446q0 22 -1.5 67.5t-9.5 70.5
q-4 1 -13 1q-25 0 -44 -6l-119 -39v239l62 20q45 15 104 15q19 0 57.5 -4.5t80.5 -27.5t73 -76q43 -66 43 -260v-439z" />
    <glyph glyph-name="asciitilde" unicode="~" horiz-adv-x="1185" 
d="M794 652v0q91 0 171 53l140 94v-277l-45 -26q-48 -30 -111 -52t-155 -22q-61 0 -113.5 11t-124.5 34q-60 19 -94 27t-71 8q-91 0 -171 -54l-140 -93v275l44 27q117 74 267 74q68 0 121.5 -12t118.5 -33h1q53 -18 88.5 -26t73.5 -8z" />
    <glyph glyph-name="cent" unicode="&#xa2;" horiz-adv-x="1178" 
d="M600 893v0q-124 0 -205.5 -83.5t-81.5 -212.5t81.5 -212.5t205.5 -83.5q164 0 247 134l41 73l210 -101l-47 -84q-113 -191 -336 -242v-182h-229v181q-162 35 -271 153q-135 155 -135 364q0 207 135 362q108 117 269 154v188h233v-188q88 -18 162 -64q108 -66 172 -179
l47 -83l-210 -101l-41 73q-83 134 -247 134z" />
    <glyph glyph-name="sterling" unicode="&#xa3;" horiz-adv-x="1190" 
d="M649 1209v0q-107 0 -165.5 -68t-58.5 -191v-141h513v-230h-513v-340h642v-229h-987v229h112v340h-112v230h112v141q0 209 120 348q130 144 337 144q154 0 264 -78q110 -77 166 -224l31 -83l-216 -85l-33 85q-54 152 -212 152z" />
    <glyph glyph-name="yen" unicode="&#xa5;" horiz-adv-x="1478" 
d="M1120 1424v0h278l-266 -444h126v-230h-262l-39 -65h301v-229h-400v-446h-233v446h-400v229h301l-40 65h-261v230h123l-268 444h278l383 -645z" />
    <glyph glyph-name="quoteleft" unicode="&#x2018;" 
d="M80 877v0v623h233v-623h-233z" />
    <glyph glyph-name="quoteright" unicode="&#x2019;" 
d="M80 877v0v623h233v-623h-233z" />
    <glyph glyph-name="quotesinglbase" unicode="&#x201a;" 
d="M80 -98v0v622h233v-622h-233z" />
    <glyph glyph-name="quotedblleft" unicode="&#x201c;" horiz-adv-x="708" 
d="M396 877v0v623h232v-623h-232zM80 877v0v623h233v-623h-233z" />
    <glyph glyph-name="quotedblright" unicode="&#x201d;" horiz-adv-x="708" 
d="M396 877v0v623h232v-623h-232zM80 877v0v623h233v-623h-233z" />
    <glyph glyph-name="quotedblbase" unicode="&#x201e;" horiz-adv-x="708" 
d="M396 -98v0v622h232v-622h-232zM80 -98v0v622h233v-622h-233z" />
    <glyph glyph-name="germandbls" unicode="&#xdf;" horiz-adv-x="1090" 
d="M310 730v0l1 1l261 403h-262v-404zM706 913v0q134 -48 216 -162q88 -124 88 -275q0 -198 -142 -339q-148 -134 -356 -134q-151 0 -278 75l-79 46l125 203l77 -51q74 -43 155 -43q121 0 193 66t72 177q0 108 -73.5 174t-192.5 66h-201v-342h-230v991h916z" />
    <glyph glyph-name="section" unicode="&#xa7;" horiz-adv-x="1068" 
d="M319 613v0q0 -74 59.5 -119t155.5 -45t155.5 45t59.5 119q0 73 -59.5 118.5t-155.5 45.5t-155.5 -45.5t-59.5 -118.5zM545 1239v0q-33 0 -74 -8.5t-71 -29.5t-30 -59q0 -78 144 -116l107 -27q164 -25 262.5 -130.5t98.5 -255.5q0 -180 -151 -302q10 -8 18 -18
q85 -93 85 -209q0 -147 -134 -246q-120 -80 -277 -80q-138 0 -256 66q-125 70 -163 189l-24 78l227 96l25 -103q2 -13 14 -29t43 -33q63 -35 134 -35q33 0 74 8.5t71 29.5t30 59q0 10 -6 30t-37 43t-103 42l-104 27q-165 26 -263.5 131t-98.5 256q0 142 96 251q26 29 57 52
q-106 98 -106 226q0 151 132 245q116 81 280 81q141 0 256 -66q125 -71 163 -189l24 -78l-228 -96l-25 103q-2 13 -13.5 28.5t-42.5 33.5q-62 35 -134 35z" />
    <glyph glyph-name="uni00B2" unicode="&#xb2;" horiz-adv-x="895" 
d="M673 1072v0l-120 -147h262v-226h-735l413 510q47 60 47 99q0 44 -39 40q-43 0 -42 -40v-90h-229v90q0 111 78 190q81 76 193 76t192 -76q77 -79 77 -190q0 -119 -97 -236z" />
    <glyph glyph-name="uni00B3" unicode="&#xb3;" horiz-adv-x="875" 
d="M163 1563v0h632l-196 -293q76 -41 119 -111.5t43 -155.5q0 -131 -96 -225q-98 -89 -234 -89q-110 0 -196.5 57t-124.5 155l-30 79l209 92l34 -89q17 -42 48 -55.5t60 -13.5q96 0 100 89q0 39 -30 62.5t-81 23.5h-214l166 248h-209v226z" />
    <glyph glyph-name="ordfeminine" unicode="&#xaa;" horiz-adv-x="907" 
d="M452 1056v0q-30 0 -61 -5t-51.5 -19t-20.5 -42q0 -11 4 -27t24.5 -28.5t69.5 -12.5q52 0 94 36.5t63 97.5h-122zM464 1351v0q-46 0 -68.5 -14.5t-35.5 -51.5q39 6 82 6h139q-8 32 -35.5 46t-81.5 14zM464 1590v0q161 0 262 -92q101 -99 101 -260v-541h-240v30
q-82 -42 -187 -42q-135 0 -229 85q-91 90 -91 220q0 138 102 222q17 14 36 25l-109 39l24 81q33 108 122 170.5t209 62.5z" />
    <glyph glyph-name="copyright" unicode="&#xa9;" horiz-adv-x="1795" 
d="M920 1007v0q-106 1 -176 -68q-73 -75 -74 -184v-1v-1q1 -109 74 -184q70 -68 170 -68h6h1q149 0 215 115l44 86l213 -103l-50 -92q-133 -234 -421 -238h-8q-194 0 -337 136q-140 145 -141 349q1 204 141 349q141 137 345 136q288 -4 421 -238l50 -92l-213 -103l-44 85
q-66 116 -214 116h-2zM1476 754v0v1v2q0 237 -168 412q-173 168 -407 167h-2h-1h-10q-110 0 -214.5 -44t-185.5 -125q-169 -174 -169 -410v-2v-1q0 -239 172 -416q173 -168 406 -166h2h3q231 -2 403 165q171 176 171 417zM1476 1332v0q238 -242 236 -576q3 -165 -61 -319
q-62 -147 -176 -261t-261 -176q-145 -61 -302 -61h-13q-164 -2 -318 61q-147 62 -261 176t-176 262q-64 153 -61 318q-1 334 235 576q114 114 262 176q154 63 320 61h12q156 0 303 -61.5t261 -175.5z" />
    <glyph glyph-name="dieresis" unicode="&#xa8;" horiz-adv-x="855" 
d="M607 1424v0q71 0 119.5 -48.5t48.5 -119.5q0 -68 -49 -116.5t-119 -48.5q-71 0 -121 48.5t-50 116.5q0 71 49.5 119.5t121.5 48.5zM249 1424v0q71 0 119.5 -48.5t48.5 -119.5q0 -68 -49 -116.5t-119 -48.5t-119.5 48.5t-49.5 116.5q0 72 48.5 120t120.5 48z" />
    <glyph glyph-name="currency" unicode="&#xa4;" horiz-adv-x="1120" 
d="M558 452v0q65 0 109.5 44t44.5 108t-44.5 108t-109.5 44q-64 0 -107.5 -43.5t-43.5 -108.5t43.5 -108.5t107.5 -43.5zM875 1084v0l165 -164l-136 -136q44 -82 44 -180q0 -99 -44 -180l136 -136l-164 -164l-138 138q-83 -42 -180 -42q-96 0 -178 40l-136 -136l-164 165
l136 134q-46 88 -46 181q0 97 45 181l-135 135l164 164l136 -136q82 40 178 40q98 0 180 -42z" />
    <glyph glyph-name="registered" unicode="&#xae;" horiz-adv-x="1795" 
d="M319 757v0v-1v-2q0 -239 172 -416q25 -25 54 -47v926q-30 -23 -57 -50q-169 -174 -169 -410zM777 280v0h-218q153 -111 338 -108h2h2q186 -3 337 108h-191l-211 351h-59v-351zM777 998v0v-137h139q45 0 64 13.5t23 29.5t4 25q0 69 -91 69h-139zM1476 754v0v2v1
q0 237 -169 412q-172 168 -406 167h-2h-2h-10q-174 0 -327 -108h368q125 0 218 -81q95 -91 95 -218q0 -84 -41 -152.5t-115 -107.5l208 -344l12 12q171 176 171 417v0zM1476 1332v0q238 -242 236 -576q3 -165 -61 -319q-62 -147 -176 -261t-261 -176q-146 -61 -302 -61h-13
q-165 -2 -318 61q-147 62 -261 176t-176 262q-64 153 -61 318q-1 334 235 576q114 114 262 176q154 63 319 61q334 -1 577 -237z" />
    </font>
</defs>
</svg>
