<svg xmlns="http://www.w3.org/2000/svg" xmlns:xlink="http://www.w3.org/1999/xlink" viewBox="0 0 55.76 55.76"><defs><radialGradient id="a" cx="34.14" cy="14.42" r="18.99" gradientTransform="translate(-0.14 32.57) rotate(-56.22) scale(1 1.28)" gradientUnits="userSpaceOnUse"><stop offset="0" stop-color="#fff"/><stop offset="0.09" stop-color="#fbfbfb"/><stop offset="0.19" stop-color="#efefef"/><stop offset="0.29" stop-color="#dadada"/><stop offset="0.38" stop-color="#bebebe"/><stop offset="0.48" stop-color="#999"/><stop offset="0.58" stop-color="#6c6c6c"/><stop offset="0.68" stop-color="#383838"/><stop offset="0.77"/></radialGradient><radialGradient id="b" cx="18.57" cy="38.94" r="18.99" gradientTransform="translate(72.87 53.77) rotate(123.78) scale(1 1.28)" xlink:href="#a"/></defs><title>logo1</title><g style="isolation:isolate"><circle cx="27.88" cy="27.88" r="26.88" fill="#fff" stroke="#a02c3d" stroke-miterlimit="10" stroke-width="2"/><circle cx="27.88" cy="27.88" r="25.42" fill="#c4d113"/><path d="M52.59,22.77C40.41,2.64,17.75,4.8,17.19,4.86A25.15,25.15,0,0,1,27.71,2.58,25.42,25.42,0,0,1,52.59,22.77Z" transform="translate(0.17 -0.12)" fill="url(#a)" style="mix-blend-mode:multiply"/><path d="M2.79,33.23C15,53.36,37.63,51.2,38.19,51.14a25.15,25.15,0,0,1-10.52,2.28A25.42,25.42,0,0,1,2.79,33.23Z" transform="translate(0.17 -0.12)" fill="url(#b)" style="mix-blend-mode:multiply"/><path d="M11.85,12.72s6.75-7.16,12.75,0v11H11.85" transform="translate(0.17 -0.12)" fill="#895f67" opacity="0.65" style="mix-blend-mode:multiply"/><text transform="translate(13.21 22.57)" font-size="15" fill="#a02c3d" font-family="CooperBlack, Cooper Black">B Y</text><text transform="translate(8.39 39.97)" font-size="15" fill="#a02c3d" font-family="CooperBlack, Cooper Black">13</text><rect x="3.34" y="25.72" width="49" height="2.17" fill="#838933"/><polyline points="50.04 27.88 3.34 27.88 3.34 25.71 52.34 25.71 52.34 27.88" fill="none" stroke="#a02c3d" stroke-linecap="round" stroke-miterlimit="10" stroke-width="0.26"/><polygon points="49.52 27.13 52.34 27.88 49.52 28.64 49.52 27.13" fill="#a02c3d"/><text transform="translate(26.59 39.97)" font-size="15" fill="#a02c3d" font-family="CooperBlack, Cooper Black" style="mix-blend-mode:multiply">96</text></g></svg>